<svg id="Capa_1" data-name="Capa 1" xmlns="http://www.w3.org/2000/svg" xmlns:xlink="http://www.w3.org/1999/xlink" viewBox="0 0 177.73 40"><defs><style>.cls-1{fill:none;}.cls-2{clip-path:url(#clip-path);}.cls-3{fill:#c7231a;fill-rule:evenodd;}.cls-4{fill:#fff;}</style><clipPath id="clip-path" transform="translate(0 -0.52)"><rect class="cls-1" width="40" height="41"/></clipPath></defs><g class="cls-2"><path class="cls-3" d="M13.72.52A8.5,8.5,0,0,0,7.7,3L0,10.71v3.52a8.52,8.52,0,0,0,2.77,6.29A8.48,8.48,0,0,0,0,26.8v3.53L7.7,38a8.49,8.49,0,0,0,12,0l.27-.28a8.51,8.51,0,0,0,12,.55A2.37,2.37,0,0,0,32.3,38L40,30.33V26.8a8.48,8.48,0,0,0-2.77-6.28A8.5,8.5,0,0,0,40,14.23V10.71L32.3,3a8.5,8.5,0,0,0-12,0L20,3.29A8.44,8.44,0,0,0,13.72.52Zm12,20-.28-.27L20,14.77l-5.48,5.48-.28.27a2.37,2.37,0,0,1,.28.27L20,26.26l5.48-5.47A2.37,2.37,0,0,1,25.76,20.52Zm-3.54,9.81V32a4.07,4.07,0,0,0,6.94,2.87l6.4-6.39V26.8a4.07,4.07,0,0,0-6.94-2.87Zm-4.44,0-6.4-6.4A4.07,4.07,0,0,0,4.44,26.8v1.69l6.4,6.39A4.07,4.07,0,0,0,17.78,32ZM17.78,9v1.69l-6.4,6.39a4.06,4.06,0,0,1-6.94-2.87V12.55l6.4-6.4A4.07,4.07,0,0,1,17.78,9ZM28.62,17.1l-6.4-6.39V9a4.07,4.07,0,0,1,6.94-2.87l6.4,6.4v1.68a4.06,4.06,0,0,1-6.94,2.87Z" transform="translate(0 -0.52)"/></g><path class="cls-4" d="M54.32,29V12.2H65.8v3.1H57.87v3.6h6.72v2.86H57.87v4.11h8V29Zm12.82,0,4.36-6-4.14-6.11h4.43l2.15,3.68L76,16.88h4.32l-4,6L80.66,29H76.17l-2.35-3.7L71.43,29Zm20.29.34a4.21,4.21,0,0,1-3.07-1.09,4.48,4.48,0,0,1-1.12-3.33V13.39h3.51v3.49h3v2.81h-3v4.62a2,2,0,0,0,.44,1.5,1.63,1.63,0,0,0,1.19.43,3.65,3.65,0,0,0,.74-.08,3.54,3.54,0,0,0,.69-.27l.49,2.76a5.87,5.87,0,0,1-1.3.51A6.37,6.37,0,0,1,87.43,29.36Zm-6.65-9.67V16.88h2.81v2.81Zm17.13,9.67a7.32,7.32,0,0,1-3.48-.8,5.83,5.83,0,0,1-2.34-2.25,6.56,6.56,0,0,1-.84-3.37,6.74,6.74,0,0,1,.48-2.58A6.09,6.09,0,0,1,95.17,17a7,7,0,0,1,2.63-.48,6.6,6.6,0,0,1,2.78.55,5.43,5.43,0,0,1,2,1.55,5.64,5.64,0,0,1,1.12,2.32,7.33,7.33,0,0,1,.06,2.89H94.5a2.47,2.47,0,0,0,.43,1.46,3,3,0,0,0,1.24,1,4.69,4.69,0,0,0,1.87.34,7,7,0,0,0,2-.28,6.52,6.52,0,0,0,1.82-.88l1.16,2.4a5.71,5.71,0,0,1-1.44.79,9.78,9.78,0,0,1-1.84.52,9.42,9.42,0,0,1-1.84.19ZM94.7,21.42h5.73a2.26,2.26,0,0,0-.76-1.7,2.88,2.88,0,0,0-2-.62,3.37,3.37,0,0,0-2.07.62A2.4,2.4,0,0,0,94.7,21.42ZM105.83,29V16.88h3.5v1.37A4.14,4.14,0,0,1,111,16.93a5.08,5.08,0,0,1,2-.41,5.24,5.24,0,0,1,2.79.67,4.14,4.14,0,0,1,1.63,1.72,4.79,4.79,0,0,1,.54,2.22V29h-3.51V22.22a2.58,2.58,0,0,0-.64-1.84,2.43,2.43,0,0,0-1.85-.68,2.65,2.65,0,0,0-1.36.35,2.34,2.34,0,0,0-.92.95,2.91,2.91,0,0,0-.33,1.41V29Zm19.29.35a10.14,10.14,0,0,1-3-.42,7.56,7.56,0,0,1-2.34-1.18l1.14-2.45a8.18,8.18,0,0,0,2,1,6.9,6.9,0,0,0,2.13.36,3.25,3.25,0,0,0,1.55-.3,1,1,0,0,0,.55-.88.8.8,0,0,0-.49-.76,8.14,8.14,0,0,0-1.88-.54,7.57,7.57,0,0,1-3.5-1.36,3.16,3.16,0,0,1-1.1-2.56,3.38,3.38,0,0,1,.63-2,4.16,4.16,0,0,1,1.78-1.36,6.37,6.37,0,0,1,2.59-.49,8.88,8.88,0,0,1,2.71.4,6.56,6.56,0,0,1,2.2,1.08L129,20.34a5.44,5.44,0,0,0-1.1-.68,6.42,6.42,0,0,0-1.3-.44,5.31,5.31,0,0,0-1.32-.17,2.89,2.89,0,0,0-1.41.3.9.9,0,0,0-.54.82.82.82,0,0,0,.49.78,8.74,8.74,0,0,0,1.84.55,8.46,8.46,0,0,1,3.56,1.4,3,3,0,0,1,1.07,2.44,3.46,3.46,0,0,1-.66,2.11,4.25,4.25,0,0,1-1.83,1.41,7.06,7.06,0,0,1-2.72.49Zm7.41-.35V16.88H136V29Zm1.76-14a2.27,2.27,0,0,1-1.52-.54,1.86,1.86,0,0,1-.63-1.46,1.84,1.84,0,0,1,.63-1.47,2.36,2.36,0,0,1,3,0,1.84,1.84,0,0,1,.63,1.47,1.86,1.86,0,0,1-.63,1.46A2.26,2.26,0,0,1,134.29,15Zm10.36,14.4a6.73,6.73,0,0,1-3.47-.88,6.54,6.54,0,0,1-2.38-2.32,6.38,6.38,0,0,1-.85-3.22,6.11,6.11,0,0,1,.49-2.44A6.49,6.49,0,0,1,142,17a7.21,7.21,0,0,1,6.14.36,6.34,6.34,0,0,1,2.37,2.34,6.36,6.36,0,0,1,.37,5.64,6.43,6.43,0,0,1-3.51,3.46,6.71,6.71,0,0,1-2.68.52Zm0-3a3.33,3.33,0,0,0,1.65-.4,3.06,3.06,0,0,0,1.16-1.18,3.68,3.68,0,0,0,.42-1.8,3.63,3.63,0,0,0-.42-1.8A2.83,2.83,0,0,0,146.32,20,3.55,3.55,0,0,0,143,20a2.92,2.92,0,0,0-1.15,1.16,4.11,4.11,0,0,0,0,3.6A3,3,0,0,0,143,25.92,3.38,3.38,0,0,0,144.65,26.32ZM153.24,29V16.88h3.5v1.37a4,4,0,0,1,1.64-1.32,5.16,5.16,0,0,1,2-.41,5.23,5.23,0,0,1,2.78.67,4.08,4.08,0,0,1,1.63,1.72,4.79,4.79,0,0,1,.54,2.22V29h-3.5V22.22a2.58,2.58,0,0,0-.65-1.84,2.42,2.42,0,0,0-1.85-.68,2.61,2.61,0,0,0-1.35.35,2.36,2.36,0,0,0-.93.95,3,3,0,0,0-.32,1.41V29h-3.5Zm19.29.35a10.14,10.14,0,0,1-3-.42,7.56,7.56,0,0,1-2.34-1.18l1.14-2.45a7.86,7.86,0,0,0,2,1,6.84,6.84,0,0,0,2.12.36,3.23,3.23,0,0,0,1.55-.3,1,1,0,0,0,.55-.88.79.79,0,0,0-.49-.76,8,8,0,0,0-1.87-.54,7.52,7.52,0,0,1-3.5-1.36,3.17,3.17,0,0,1-1.11-2.56,3.32,3.32,0,0,1,.64-2,4.13,4.13,0,0,1,1.77-1.36,6.45,6.45,0,0,1,2.6-.49,8.88,8.88,0,0,1,2.71.4,6.5,6.5,0,0,1,2.19,1.08l-1.1,2.46a5.44,5.44,0,0,0-1.1-.68,6.64,6.64,0,0,0-1.3-.44,5.31,5.31,0,0,0-1.32-.17,2.93,2.93,0,0,0-1.42.3.9.9,0,0,0-.54.82.83.83,0,0,0,.5.78,8.6,8.6,0,0,0,1.83.55,8.57,8.57,0,0,1,3.57,1.4,3,3,0,0,1,1.06,2.44,3.46,3.46,0,0,1-.66,2.11,4.28,4.28,0,0,1-1.82,1.41,7.1,7.1,0,0,1-2.72.49Z" transform="translate(0 -0.52)"/></svg>